<?xml version="1.0" encoding="utf-8"?>
<!-- Generator: Adobe Illustrator 24.0.2, SVG Export Plug-In . SVG Version: 6.00 Build 0)  -->
<svg version="1.1" id="Calque_1" xmlns="http://www.w3.org/2000/svg" xmlns:xlink="http://www.w3.org/1999/xlink" x="0px" y="0px"
	 viewBox="0 0 1000 1000" style="enable-background:new 0 0 1000 1000;" xml:space="preserve">
<path d="M991.7,534.2c-6-0.5-12.1-1.1-18.1-1.6c-19-1.5-38.1-2.9-57.1-4.3c-9.1-0.7-193.3-10.8-208.2-11.9c-0.8-0.7-1.3-7.4-0.4-7.4
	c10.8-0.6,279.8-4.4,292.7-5.1c-2.4-3.3-6.3-3.5-10-3.8c-3.9-0.2-266.4-10.7-286.1-11.2c-0.4-2.4-0.2-3-0.2-5.4
	c0-0.7,1.5-1.6,2.7-1.8c7.9-1,289.7-10.4,293-13.6c-2.5-0.5-4.5-1.1-6.4-1.1c-11.9-0.5-320-9.1-341-7.5c-4.6,0.4-10,1-12.9,2.7
	c-8.7,5.4-12.6,12.7-17.7,19.5c-1.4,1.9-3.2,3.8-5.7,5.1c-3.5,1.8-7.9,3.1-11.9,4.7c-12.3,4.7-587.4,6.7-596.5,9.4
	c-4.5,1.3-9.9,2.3-7.1,7.3c1.7,0.2,4.3,0.9,6.5,0.8c6.4-0.4,572,13.9,595.7,12.3c17.5-1.1,33,13.6,38.4,15.3
	c15,4.7,63.5,4.7,69.1,4.8c14.7,0.4,265.8-0.9,277.6-1.1c4.7-0.1,9.8,0.1,13.2-2C999,535.6,995.7,534.5,991.7,534.2z"/>
</svg>
