<?xml version="1.0" encoding="utf-8"?>
<!-- Generator: Adobe Illustrator 24.0.2, SVG Export Plug-In . SVG Version: 6.00 Build 0)  -->
<svg version="1.1" id="Calque_1" xmlns="http://www.w3.org/2000/svg" xmlns:xlink="http://www.w3.org/1999/xlink" x="0px" y="0px"
	 viewBox="0 0 1000 1000" style="enable-background:new 0 0 1000 1000;" xml:space="preserve">
<g>
	<path d="M821.2,747.7c-1.5,27.9-3.2,55.9-5,83.8c-0.7,12.2-8.2,20.7-20.2,22.7c-29.9,5.2-59.9,10.2-90.1,15.5
		c-8,1.5-16.2,2.7-24.2,4.5c-1.5,0.2-3.2,1.7-4,3.2c-1,1.2-1.2,3.2-1.2,5c-1,16-1.7,31.9-2.5,47.9c-0.5,7.7,0.2,15.7-1.2,23.2
		c-3.2,17.2-8.5,21.2-26,22.2c-17.2,1-34.7,1.7-51.9,2.7c-27.4,1.7-54.6,3.7-82.1,5.7c-23,1.5-45.9,3.2-68.9,4.7
		c-24.7,1.5-49.4,3-74.1,4.7c-4.2,0.2-8.5,1-12.7,1c-18,0-24.5-6-26-24.2c-1.2-15.2-2.5-30.4-3.5-45.7c0-0.5,0-0.7-0.2-1.2
		c-1-4.2-0.5-10-3.2-12.2c-2.7-2.2-8.5-1.2-12.7-1.2c-17.2-0.7-34.7-1-51.9-2.2c-13-0.7-20-7.7-23.7-20.2
		c-4.2-13.5-9.2-26.9-13.7-40.4c-4.5-13.7-8.7-27.7-13.2-41.4c-5-15.7-10.5-31.4-15.7-47.2c0-0.2,0-0.2,0-0.5c-1.7-5-2-12-5.2-14.5
		c-3.2-2.5-10-0.5-15.2-0.7c-28.4-0.5-56.9-1-85.1-1.5c-14-0.2-27.7-1.5-41.7-1c-19,0.5-26.9-8-28.2-26.7c-1.2-22-2.7-43.7-4.7-65.6
		C10.2,619,7,590,4.2,561.1c-1.5-16.7-3.2-33.4-4-50.2c-0.5-12.7,1.5-24.7,11.7-34.4c11-10.5,21-22.2,31.4-33.4
		c17.5-19,34.9-37.9,52.7-56.9c11.7-12.7,23.7-25.2,35.4-37.7c11.5-12,23-23.7,34.4-35.9c11.7-12.5,23-25.5,34.7-38.2
		c12.2-13.2,24.5-26.2,36.9-38.9c7-7.2,13-15.5,23-18.5c4.7-1.5,10-2.7,15-2.7c15.5-0.5,31.2,0,46.9-0.5c1.7,0,4.5-2.5,5-4.2
		c3.7-13.7,7.2-27.7,10.5-41.7c1.5-6.7,3.2-12.7,8.5-18.2c6-6.2,13-6.5,20.2-6c20.5,1.5,40.9,3.5,61.4,5.5
		c12.2,1.2,24.7,2.7,36.9,3.2c13.5,0.5,27.2,0,40.9,0.5c24,0.5,47.7,1.5,71.6,2.2c14.5,0.5,28.9,0.7,43.4,1.2
		c16.5,0.7,33.2,1.2,49.7,2.7c8,0.7,16.7,2.2,20.5,10.2c3,6.2,4.2,13.5,5.5,20.2c1.2,7.7,1.5,15.7,3,23.5c0.2,1.7,3.5,3.5,5.5,4
		c5,0.7,10.5,0.5,15.5,1.2c11,1.2,19.5,7.2,27.7,14c18,14.5,36.2,28.7,54.1,43.4c14.2,11.5,27.9,23.2,42.2,34.9
		c19.7,16,39.4,31.7,59.1,47.7c15.5,12.5,30.7,25,46.2,37.4c13.2,10.7,26.2,21.7,39.2,32.4c10.2,8.5,11.7,20,10.7,32.4
		c-0.7,7.5,0,15.2-0.2,22.7c-0.5,26.9-0.7,53.9-1.2,80.8c-0.5,32.9-0.7,65.9-1.5,98.6c-0.2,15.7-0.7,31.4-2,47.2
		c-0.7,11-10,16-17.7,16.7c-25.2,1.7-50.7,3.2-75.9,5c-19,1.2-37.9,3-57.1,4.5c-5.2,0.5-10.2,1.2-15.5,1.2s-7.7,2-7.2,7.5
		c0.2,1.2,0,2.2,0,3.5C821.4,747.7,821.2,747.7,821.2,747.7 M396.7,617.5c10.7-0.7,20.7-1.2,30.4-2c15-1.2,29.9-2.5,44.9-3.7
		c12-1,24-3.2,35.9-2.7c13.2,0.5,18.2-4.7,17.2-17.2c0-0.7,0.2-1.5,0.2-2.2c0.7-15.2,1.7-30.7,2.5-45.9c1.2-20.7,2.2-41.4,3.5-62.1
		c1.2-21.7,2.5-43.7,3.5-65.4c0.7-13,1.5-26,2.2-38.9c0.5-9.7,1-19.2,1.7-28.9c1-14.2,2-28.4,3-42.4c0.7-14,1.2-27.9,2-41.9
		c-1.2-0.2-3-1.2-4.7-1.2c-13.2-0.2-26.2-0.2-39.4-0.2c-6.7,0-13.5,0-20.2,0.2c-1.5,0-3.7,1.7-4.2,3.2c-1.5,5.5-2.2,11.2-3.7,17
		c-2.7,11-5.7,21.7-8.2,32.7c-4.2,19-8,38.2-12,57.4c-3.7,17-7.7,33.9-11.5,50.9c-5.5,25.2-10.7,50.4-16.5,75.4
		c-4.2,19.5-8.7,38.7-13,58.1c-2.2,10.5-4.5,20.7-7,31.2C401.2,597.5,399,607.3,396.7,617.5 M123.5,652.7
		c10.5,0.5,19.7,1.5,29.2,1.5c32.4,0.5,64.9,0.7,97.3,1c25.5,0.2,50.7,0.5,76.1,1c3.5,0,5-1.2,5-4.5c0-31.2,0-62.4,0-93.3
		c0-6.5-3.2-8.2-9-5.2c-24.5,12.2-48.7,24.7-73.1,36.7c-19.5,9.7-39.2,18.7-58.9,28.2c-21,10.2-41.9,20.7-62.6,31.2
		C126,649.9,125,651.4,123.5,652.7 M583.4,559.1c0.5,6.7,0.5,12.2,1.2,17.5c1.2,9.5,3.2,19,4.5,28.4c2.2,15.5,4,31.2,6.2,46.7
		c0.2,1.2,2.7,3.2,4.2,3c16.2-0.7,32.7-1.7,48.9-3c21.5-1.5,42.7-3.2,64.1-4.5c21-1.5,41.9-2.5,63.1-3.7c8.5-0.5,17-1.5,25.5-2.2
		c0.7,0,1.7-1,2.5-1.5c-0.7-0.5-1.5-1.2-2.2-1.5c-13-5-26.2-9.7-39.2-14.5c-11.5-4.2-23-8.2-34.7-12.5
		c-14.2-5.2-28.2-10.5-42.4-15.5c-19-6.7-37.9-12.7-56.9-19.5C613.3,571.1,599.1,565.1,583.4,559.1 M533.2,757.7
		c-3-7.5-5.2-14.2-8.2-20.7c-7-15.7-14-31.4-21-47.2c-4.7-10.7-9.2-21.7-14.2-32.4c-1.2-3-3.5-5.2-7-2.2c-0.7,0.7-2.2,0.5-3.5,0.7
		c-8,1.2-15.7,2.7-23.7,4c-4.7,0.7-9.7,2-14.5,2.2c-6.2,0.5-11,1.7-12.2,9.2c-1,5.7-3,11.2-5,16.5c-5.5,16-11,31.9-16.7,47.9
		c-3.7,11-7.7,22-11.5,32.9c-0.5,1.5-0.2,3.5-0.2,5.2c1.7-0.2,3.7-0.2,5.5-0.7c4.5-1.7,9-3.5,13-5.7c2.5-1.5,5.5-3.2,6.7-5.7
		c6.5-13.7,12.5-27.9,18.7-41.9c2.5-5.7,8.5-8.2,14.2-6.7c6.5,1.5,9.5,6.5,12.5,11.2c5.7,9.5,10.5,19.5,16.2,29.2
		c1.2,2,4.2,4.2,6.5,4.2C503.3,757.7,517.5,757.7,533.2,757.7"/>
	<path d="M446.1,22.4c1-12.2,6.5-18.2,21-17c26,2,51.7,4.5,77.6,7.2c9,1,18.5,0.5,26.9,5.5c5.2,3,7.5,7.5,7.7,12.7
		c0.5,6.2-0.2,12.5-0.2,18.5c-0.5,15-1.2,29.9-1.5,44.9c-0.2,13.5-7.7,23.7-24,23c-19.7-1-39.4-2-59.1-3.5
		c-12.2-1-24.5-2.2-36.2-4.7c-6.5-1.2-11.5-6.5-11.5-14C446.6,95,445.9,27.1,446.1,22.4z M523.2,83.7c0.7-12.5-5.7-17-16.2-18
		c-10.2-1-16.5,6.5-16.7,15.7c-0.2,11.5,5.2,17.5,16,18C514.3,100,524,93.5,523.2,83.7"/>
	<path d="M499.5,146.6c-20.5-0.7-41.2-1.5-61.6-2.5c-5.5-0.2-11.2-1.5-14.7-7c-3.2-5.5-1.5-12.2,4.7-14.2c4.7-1.5,10.2-2.5,15.2-2.5
		c14,0.2,27.9,0.7,42.2,1.5c31.4,1.7,62.6,3.5,93.8,5.2c6.5,0.5,11.7,5,12.2,9.7c0.5,5.5-4,10.7-10.7,12c-5,1-10.2,1.2-15.2,1
		c-18.2-0.7-36.7-2-54.9-3.2C506.8,146.6,503.3,146.9,499.5,146.6C499.5,146.9,499.5,146.9,499.5,146.6"/>
</g>
</svg>
