<?xml version="1.0" encoding="utf-8"?>
<!-- Generator: Adobe Illustrator 24.0.2, SVG Export Plug-In . SVG Version: 6.00 Build 0)  -->
<svg version="1.1" id="Calque_1" xmlns="http://www.w3.org/2000/svg" xmlns:xlink="http://www.w3.org/1999/xlink" x="0px" y="0px"
	 viewBox="0 0 1000 1000" style="enable-background:new 0 0 1000 1000;" xml:space="preserve">
<path d="M999.9,513.3c-1.3-0.8-3-1.4-4.8-1.6c-11.5-1.3-483-17-486.7-17.2c-5.1-0.4-5.2-0.3-2.6-3.9c3.7-5.2,1.2-9.2-6.5-10.1
	c-5.7-0.7-11.6-1.2-17.4-1.7c-10.3-0.9-345.5-28-357.4-28.9c-11.7-0.9-23.2-0.9-35.4,4.9c-9.1,4.4-18.8,8.3-28.2,12.4
	c-17.1,7.5-34.4,14.8-51.3,22.5c-8.2,3.7-9.8,6-9,10.9c0.4,2.5,2.2,4.7,3.7,7c4.5,7.2,9.1,14.3,13.8,21.4c3.5,5.3,7,10.5,10.6,15.7
	c2.5,3.7,7.3,5.9,14.1,5.6c9.6-0.4,19.3-1.3,29-2.2c15.5-1.6,398.2-4.4,402.2-5.3c7-1.5,12.1-5,16.8-8.8c1.9-1.5,4.8-3.5,7-3.7
	c9.4-1,490.2-11.3,500.6-13.2c0-0.3,0-0.6,0-1c0.2-0.2,0.4-0.3,0.4-0.5C999.3,514.8,1000.3,513.6,999.9,513.3z"/>
</svg>
