<?xml version="1.0" encoding="utf-8"?>
<!-- Generator: Adobe Illustrator 24.0.2, SVG Export Plug-In . SVG Version: 6.00 Build 0)  -->
<svg version="1.1" id="Calque_1" xmlns="http://www.w3.org/2000/svg" xmlns:xlink="http://www.w3.org/1999/xlink" x="0px" y="0px"
	 viewBox="0 0 2500 500" style="enable-background:new 0 0 2500 500;" xml:space="preserve">
<path d="M1378.6,351.1c-0.6,11.2-1.3,22.4-2,33.6c-0.3,4.9-3.3,8.3-8.1,9.1c-12,2.1-24,4.1-36.1,6.2c-3.2,0.6-6.5,1.1-9.7,1.8
	c-0.6,0.1-1.3,0.7-1.6,1.3c-0.4,0.5-0.5,1.3-0.5,2c-0.4,6.4-0.7,12.8-1,19.2c-0.2,3.1,0.1,6.3-0.5,9.3c-1.3,6.9-3.4,8.5-10.4,8.9
	c-6.9,0.4-13.9,0.7-20.8,1.1c-11,0.7-21.9,1.5-32.9,2.3c-9.2,0.6-18.4,1.3-27.6,1.9c-9.9,0.6-19.8,1.2-29.7,1.9
	c-1.7,0.1-3.4,0.4-5.1,0.4c-7.2,0-9.8-2.4-10.4-9.7c-0.5-6.1-1-12.2-1.4-18.3c0-0.2,0-0.3-0.1-0.5c-0.4-1.7-0.2-4-1.3-4.9
	c-1.1-0.9-3.4-0.5-5.1-0.5c-6.9-0.3-13.9-0.4-20.8-0.9c-5.2-0.3-8-3.1-9.5-8.1c-1.7-5.4-3.7-10.8-5.5-16.2
	c-1.8-5.5-3.5-11.1-5.3-16.6c-2-6.3-4.2-12.6-6.3-18.9c0-0.1,0-0.1,0-0.2c-0.7-2-0.8-4.8-2.1-5.8c-1.3-1-4-0.2-6.1-0.3
	c-11.4-0.2-22.8-0.4-34.1-0.6c-5.6-0.1-11.1-0.6-16.7-0.4c-7.6,0.2-10.8-3.2-11.3-10.7c-0.5-8.8-1.1-17.5-1.9-26.3
	c-1.1-11.7-2.4-23.3-3.5-34.9c-0.6-6.7-1.3-13.4-1.6-20.1c-0.2-5.1,0.6-9.9,4.7-13.8c4.4-4.2,8.4-8.9,12.6-13.4
	c7-7.6,14-15.2,21.1-22.8c4.7-5.1,9.5-10.1,14.2-15.1c4.6-4.8,9.2-9.5,13.8-14.4c4.7-5,9.2-10.2,13.9-15.3
	c4.9-5.3,9.8-10.5,14.8-15.6c2.8-2.9,5.2-6.2,9.2-7.4c1.9-0.6,4-1.1,6-1.1c6.2-0.2,12.5,0,18.8-0.2c0.7,0,1.8-1,2-1.7
	c1.5-5.5,2.9-11.1,4.2-16.7c0.6-2.7,1.3-5.1,3.4-7.3c2.4-2.5,5.2-2.6,8.1-2.4c8.2,0.6,16.4,1.4,24.6,2.2c4.9,0.5,9.9,1.1,14.8,1.3
	c5.4,0.2,10.9,0,16.4,0.2c9.6,0.2,19.1,0.6,28.7,0.9c5.8,0.2,11.6,0.3,17.4,0.5c6.6,0.3,13.3,0.5,19.9,1.1c3.2,0.3,6.7,0.9,8.2,4.1
	c1.2,2.5,1.7,5.4,2.2,8.1c0.5,3.1,0.6,6.3,1.2,9.4c0.1,0.7,1.4,1.4,2.2,1.6c2,0.3,4.2,0.2,6.2,0.5c4.4,0.5,7.8,2.9,11.1,5.6
	c7.2,5.8,14.5,11.5,21.7,17.4c5.7,4.6,11.2,9.3,16.9,14c7.9,6.4,15.8,12.7,23.7,19.1c6.2,5,12.3,10,18.5,15
	c5.3,4.3,10.5,8.7,15.7,13c4.1,3.4,4.7,8,4.3,13c-0.3,3,0,6.1-0.1,9.1c-0.2,10.8-0.3,21.6-0.5,32.4c-0.2,13.2-0.3,26.4-0.6,39.5
	c-0.1,6.3-0.3,12.6-0.8,18.9c-0.3,4.4-4,6.4-7.1,6.7c-10.1,0.7-20.3,1.3-30.4,2c-7.6,0.5-15.2,1.2-22.9,1.8
	c-2.1,0.2-4.1,0.5-6.2,0.5c-2.1,0-3.1,0.8-2.9,3c0.1,0.5,0,0.9,0,1.4C1378.7,351.1,1378.6,351.1,1378.6,351.1 M1208.5,298.9
	c4.3-0.3,8.3-0.5,12.2-0.8c6-0.5,12-1,18-1.5c4.8-0.4,9.6-1.3,14.4-1.1c5.3,0.2,7.3-1.9,6.9-6.9c0-0.3,0.1-0.6,0.1-0.9
	c0.3-6.1,0.7-12.3,1-18.4c0.5-8.3,0.9-16.6,1.4-24.9c0.5-8.7,1-17.5,1.4-26.2c0.3-5.2,0.6-10.4,0.9-15.6c0.2-3.9,0.4-7.7,0.7-11.6
	c0.4-5.7,0.8-11.4,1.2-17c0.3-5.6,0.5-11.2,0.8-16.8c-0.5-0.1-1.2-0.5-1.9-0.5c-5.3-0.1-10.5-0.1-15.8-0.1c-2.7,0-5.4,0-8.1,0.1
	c-0.6,0-1.5,0.7-1.7,1.3c-0.6,2.2-0.9,4.5-1.5,6.8c-1.1,4.4-2.3,8.7-3.3,13.1c-1.7,7.6-3.2,15.3-4.8,23c-1.5,6.8-3.1,13.6-4.6,20.4
	c-2.2,10.1-4.3,20.2-6.6,30.2c-1.7,7.8-3.5,15.5-5.2,23.3c-0.9,4.2-1.8,8.3-2.8,12.5C1210.3,290.9,1209.4,294.8,1208.5,298.9
	 M1099,313c4.2,0.2,7.9,0.6,11.7,0.6c13,0.2,26,0.3,39,0.4c10.2,0.1,20.3,0.2,30.5,0.4c1.4,0,2-0.5,2-1.8c0-12.5,0-25,0-37.4
	c0-2.6-1.3-3.3-3.6-2.1c-9.8,4.9-19.5,9.9-29.3,14.7c-7.8,3.9-15.7,7.5-23.6,11.3c-8.4,4.1-16.8,8.3-25.1,12.5
	C1100,311.9,1099.6,312.5,1099,313 M1283.3,275.5c0.2,2.7,0.2,4.9,0.5,7c0.5,3.8,1.3,7.6,1.8,11.4c0.9,6.2,1.6,12.5,2.5,18.7
	c0.1,0.5,1.1,1.3,1.7,1.2c6.5-0.3,13.1-0.7,19.6-1.2c8.6-0.6,17.1-1.3,25.7-1.8c8.4-0.6,16.8-1,25.3-1.5c3.4-0.2,6.8-0.6,10.2-0.9
	c0.3,0,0.7-0.4,1-0.6c-0.3-0.2-0.6-0.5-0.9-0.6c-5.2-2-10.5-3.9-15.7-5.8c-4.6-1.7-9.2-3.3-13.9-5c-5.7-2.1-11.3-4.2-17-6.2
	c-7.6-2.7-15.2-5.1-22.8-7.8C1295.3,280.3,1289.6,277.9,1283.3,275.5 M1263.2,355.1c-1.2-3-2.1-5.7-3.3-8.3
	c-2.8-6.3-5.6-12.6-8.4-18.9c-1.9-4.3-3.7-8.7-5.7-13c-0.5-1.2-1.4-2.1-2.8-0.9c-0.3,0.3-0.9,0.2-1.4,0.3c-3.2,0.5-6.3,1.1-9.5,1.6
	c-1.9,0.3-3.9,0.8-5.8,0.9c-2.5,0.2-4.4,0.7-4.9,3.7c-0.4,2.3-1.2,4.5-2,6.6c-2.2,6.4-4.4,12.8-6.7,19.2c-1.5,4.4-3.1,8.8-4.6,13.2
	c-0.2,0.6-0.1,1.4-0.1,2.1c0.7-0.1,1.5-0.1,2.2-0.3c1.8-0.7,3.6-1.4,5.2-2.3c1-0.6,2.2-1.3,2.7-2.3c2.6-5.5,5-11.2,7.5-16.8
	c1-2.3,3.4-3.3,5.7-2.7c2.6,0.6,3.8,2.6,5,4.5c2.3,3.8,4.2,7.8,6.5,11.7c0.5,0.8,1.7,1.7,2.6,1.7
	C1251.2,355.1,1256.9,355.1,1263.2,355.1"/>
<path d="M1228.3,60.4c0.4-4.9,2.6-7.3,8.4-6.8c10.4,0.8,20.7,1.8,31.1,2.9c3.6,0.4,7.4,0.2,10.8,2.2c2.1,1.2,3,3,3.1,5.1
	c0.2,2.5-0.1,5-0.1,7.4c-0.2,6-0.5,12-0.6,18c-0.1,5.4-3.1,9.5-9.6,9.2c-7.9-0.4-15.8-0.8-23.7-1.4c-4.9-0.4-9.8-0.9-14.5-1.9
	c-2.6-0.5-4.6-2.6-4.6-5.6C1228.5,89.5,1228.2,62.3,1228.3,60.4z M1259.2,85c0.3-5-2.3-6.8-6.5-7.2c-4.1-0.4-6.6,2.6-6.7,6.3
	c-0.1,4.6,2.1,7,6.4,7.2C1255.6,91.5,1259.5,88.9,1259.2,85"/>
<path d="M1249.7,110.2c-8.2-0.3-16.5-0.6-24.7-1c-2.2-0.1-4.5-0.6-5.9-2.8c-1.3-2.2-0.6-4.9,1.9-5.7c1.9-0.6,4.1-1,6.1-1
	c5.6,0.1,11.2,0.3,16.9,0.6c12.6,0.7,25.1,1.4,37.6,2.1c2.6,0.2,4.7,2,4.9,3.9c0.2,2.2-1.6,4.3-4.3,4.8c-2,0.4-4.1,0.5-6.1,0.4
	c-7.3-0.3-14.7-0.8-22-1.3C1252.6,110.2,1251.2,110.3,1249.7,110.2C1249.7,110.3,1249.7,110.3,1249.7,110.2"/>
<path d="M2492.6,305.5c-6-0.5-12.1-1.1-18.1-1.6c-19-1.5-38.1-2.9-57.1-4.3c-9.1-0.7-193.4-10.8-208.3-11.9
	c-0.8-0.7-1.3-7.4-0.4-7.4c10.8-0.6,279.9-4.4,292.8-5.1c-2.4-3.3-6.3-3.5-10-3.8c-3.9-0.2-266.5-10.7-286.2-11.2
	c-0.4-2.4-0.2-3-0.2-5.4c0-0.7,1.5-1.6,2.7-1.8c7.9-1,289.8-10.4,293.1-13.6c-2.5-0.5-4.5-1.1-6.4-1.1
	c-11.9-0.5-320.2-9.1-341.2-7.5c-4.6,0.4-10,1-12.9,2.7c-8.7,5.4-12.6,12.7-17.7,19.5c-1.4,1.9-3.2,3.8-5.7,5.1
	c-3.5,1.8-7.9,3.1-11.9,4.7c-12.3,4.7-587.7,6.7-596.8,9.4c-4.5,1.3-9.9,2.3-7.1,7.3c1.7,0.2,4.3,0.9,6.5,0.8
	c6.4-0.4,572.3,13.9,596,12.3c17.5-1.1,33,13.6,38.4,15.3c15,4.7,63.5,4.7,69.1,4.8c14.7,0.4,265.9-0.9,277.7-1.1
	c4.7-0.1,9.8,0.1,13.2-2C2499.9,306.9,2496.6,305.8,2492.6,305.5z"/>
<path d="M999.2,286.1c-1.3-0.8-3-1.4-4.8-1.6c-11.5-1.3-483-17-486.7-17.2c-5.1-0.4-5.2-0.3-2.6-3.9c3.7-5.2,1.2-9.2-6.5-10.1
	c-5.7-0.7-11.6-1.2-17.4-1.7c-10.3-0.9-345.5-28-357.4-28.9c-11.7-0.9-23.2-0.9-35.4,4.9c-9.1,4.4-18.8,8.3-28.2,12.4
	c-17.1,7.5-34.4,14.8-51.3,22.5c-8.2,3.7-9.8,6-9,10.9c0.4,2.5,2.2,4.7,3.7,7c4.5,7.2,9.1,14.3,13.8,21.4c3.5,5.3,7,10.5,10.6,15.7
	c2.5,3.7,7.3,5.9,14.1,5.6c9.6-0.4,19.3-1.3,29-2.2c15.5-1.6,398.2-4.4,402.2-5.3c7-1.5,12.1-5,16.8-8.8c1.9-1.5,4.8-3.5,7-3.7
	c9.4-1,490.2-11.3,500.6-13.2c0-0.3,0-0.6,0-1c0.2-0.2,0.4-0.3,0.4-0.5C998.6,287.6,999.6,286.4,999.2,286.1z"/>
</svg>
